<?xml version="1.0" encoding="UTF-8"?><svg id="Layer_1" xmlns="http://www.w3.org/2000/svg" viewBox="0 0 512 512"><path d="M261.39,349.32c4.91-16.01,20.77-24.46,33.99-32.12l5.86-17.59c-6.77,8.81-17.75,22.48-30.29,20.34-5.98-1.02-8.53-6.05-8.84-11.65-5.69,5.13-13.36,15.26-21.27,16.62-9.86,1.69-12.74-3.91-13.2-12.6-.04-.7.41-1.7-.61-1.54-7.64,15.34-33.48,31.05-35.72,3.1-7.64,7.5-18.3,23.5-30.74,19.55-7.67-2.43-8.65-11.92-7.03-18.82,2.19-9.39,10.18-26.52,14.19-36.12,3.53-8.47,7.36-18.27,11.56-26.33,2.35-4.51,5.93-12.42,11.98-11.55,8.7,1.25.2,18.82-1.66,23.73-5.64,14.88-15.43,32.29-19.26,47.2-1.61,6.28-2.85,14.99,5.77,8.25,5.38-4.21,15.51-15.21,18.53-21.22,4.32-8.6,6.13-14.88,12.81-22.59s24.35-22.04,35.06-13.93c1.01.77,2.18,3.11,2.51,2.76,1.07-1.12,2.03-3.67,4.04-4.97,5.27-3.43,12.31-1.25,10.29,5.94-1.19,4.23-5.27,10.67-7.16,15.21-2.13,5.14-10.36,25.7-9.54,29.95.14.74.59,1.51,1.13,2.04,1.78,1.09,4.44-1.09,5.89-2.21,19.55-15.05,18.26-30.95,29.4-48.86,4.39-7.06,12.59-12.96,15.05-1.14-3.64,11.94-9.61,23.14-13.54,34.96-.9,2.69-3.72,8.98-1.71,11.34,1.25,1.18,3.08.67,4.49.13,6.01-2.3,22.58-23.88,25.75-30.15,2.74-5.41,7.42-24.52,12.9-26.23,4.68-1.46,8.94,1.18,8.76,6.22-.07,2.07-2.22,7.74-2.97,10.12-3.04,9.72-7.25,19.17-10.22,28.91-.19.62-1.05,1.86-.2,2.29,4.01-3.58,8.64-7.41,12.13-11.47,4.81-5.61,4.62-8.72,7.51-14.85,4.89-10.36,16.15-22.74,26.83-27.21,21.87-9.15,28.78,8.32,15.65,24.34-7.49,9.14-19.85,17.99-31.99,18.63-1.62,11.62,4.02,16.96,15.04,12.25,13.58-5.8,32.52-31.38,37.43-45.18,2.35-6.62.06-9.3,1.21-14.94,1.1-5.35,7.99-12.73,14-10.2,5.26,2.21-2.14,10.37-.31,13.34,1.47,2.39,13.55,2.96,16.88,6.42,3.12,3.25.96,8.82-.49,12.43-2.99,7.41-8.37,14.59-11.38,22.16-4.75,11.94-1.68,14.3,7.75,5.89,6.86-6.12,12.12-14.62,18.64-21.11l2.42-.27c2.18,5-.62,8.09-3.17,11.94-5.26,7.96-20.57,25-30.16,26.37-3.06.44-7.2-.53-9.5-2.62-12.12-11,7.95-34.51,12.46-45.43.22-3.85-6.8-4.7-9.59-5.13-2.82,5.6-4.64,11.6-7.7,17.1-6.94,12.46-23.37,31.33-36.12,37.79-15.51,7.86-32.71,6.69-33.86-13.98l-19.48,18.41s-10.1,25.06-12.51,30.03c-3.74,7.74-8.53,12.9-10.72,14.93-2.06,1.92-5.26,5.38-10.28,6.62-6.59,1.63-11.72-1.56-12.91-2.43-2.7-2-5.35-7.74-3.78-12.88ZM349.38,281.59c5.42-1.12,10.25-4.1,14.29-7.75,3.89-3.51,16.75-18,11.15-22.96-3.47-3.07-10.18,4.88-12.38,7.44-5.82,6.78-9.91,14.96-13.06,23.27ZM233.06,268.69c-10.53,2.23-24.3,30.61-25.22,40.61-1.34,14.67,7.36,6.8,12.66.87,4.9-5.48,10.05-13.66,13.26-20.28,1.21-2.5,6.95-16.1,6.77-17.84-.37-3.5-4.68-3.95-7.47-3.36ZM290.99,327.55c-5.64,3.16-20.75,13.95-20.44,20.82.07,1.51,2.38,3.98,3.99,3.97,5.54-.02,15.19-19.53,16.45-24.8Z"/><path d="M115.72,241.41c33.34-2.25,55.97,19.42,36.65,51.56-12.32,20.49-36.63,30.93-60.13,26.78-6.58,14.63-13.54,29.28-17.12,45.03-5.91,6.38-15.03-.51-14.56-8.32.4-6.7,6.89-20.26,9.66-27.02,5.98-14.58,12.64-30.36,19.44-44.54,2.93-6.11,8.81-18.68,14.09-22.56,3.1-2.28,11.5-5.14,13.32-.34l-21,47.97c-.25.65.39,1.17.94,1.34,4.18,1.26,15.78-2.14,19.89-4.14,25.07-12.22,40.57-59.1-1.27-55.93-21.9,1.66-61.12,22.52-57.47,48.62.84,6.04,6.5,3.37,6.21,8.13-.29,4.98-9.43,4.48-12.9,2.9-13.71-6.21-9.19-24.48-2.57-34.46,13.99-21.1,42.14-33.36,66.83-35.03Z"/><path d="M305.9,203.65c0-.1,1.7-1.87,0-1.25-5.71,7.66-12.61,14.94-21.51,18.86-14.38,6.34-30.84,4.51-31.58-14.19-6.48,8.18-16.61,23.54-28.66,21.87-3.84-.53-6.6-2.75-7.98-6.36l-1.56-6.82c-8.07,15-34.27,29.15-35.72,1.86-5.43,7.27-20.33,25.12-30.44,16.77-7.12-5.87-1.54-18.43,1.45-25.27,1.41-3.22,10.1-18.21,10.02-19.8-.14-2.56-6.25-3.87-8.38-4.44l-21.38,43c-3.12,5.61-8.93,4.71-7.04-2.7,1.24-4.87,7.68-16.79,10.22-22.07,2.1-4.37,10.85-19,11.42-22.09.14-.74-1.19-3.55-1.23-5.32-.14-7.28,8.05-19.11,15.85-13.71,2.54,3.47-5.01,9.16-2.58,12.51,3.24,4.48,22.54-2.01,17.92,12.24-2.26,6.97-8.14,15.29-11.15,22.39-1.63,3.85-6.16,12.88-2.7,15.78,3.67.29,18.92-16.77,20.94-20.52,1.22-2.27,1.75-5.38,2.87-7.69,7.01-14.43,23.85-35.66,41.98-33.06,2.16.31,5.56,1.93,5.97,4.29h1.22c1.75-6.04,13.94-8.96,14.26-.87.12,2.94-8.26,17.94-10.01,22.19-2.04,4.96-8.22,21.05-7.33,25.56,1.27,6.39,11.09-5.28,13.04-7.42,11.99-13.18,14.7-28.91,27.92-41.02,6.89-6.31,21.8-15.91,31.03-9.9,11.15,7.26-.9,28.71-9.46,26.27-6.45-1.84,6.11-16.67,2.08-19.5-5.23-3.68-16.25,12.11-18.38,15.86-3.85,6.8-12.89,29.56-2.62,33.7,9.51,3.83,24.32-10.92,29.97-17.53,9.15-10.73,11.25-23.55,17.69-35.72-2.6-1.14-11.3,2.49-11.66-1.98-.56-6.99,11.39-7.01,15.86-8.42,2.67-5.74,5.78-13.06,9.45-18.18,2.36-3.3,4.98-5.93,9.03-2.79,6.74,5.22-4.01,18.79-2.8,19.88,3.74-.26,12.26-2.86,11.18,3.39-.98,5.67-13.63,4.16-15.81,7.2l-16.21,42.18c-.78,14.95,14.3-1.28,18.05-5.55,8.18-9.33,9.6-18.08,14.48-29,2.03-4.54,7.09-17.45,12.38-18.1s7.55,4.34,6.92,8.84c-.66,4.74-9.06,19.91-11.42,25.85-1.31,3.31-6.86,17.04-6.56,19.55.38,3.14,3.87,1.74,5.57.57,4.95-3.39,16.98-19.35,19.75-24.97,6.14-12.46,8-20.06,19.41-29.65,6.31-5.3,20.66-12.9,28.55-8.04,10.29,6.34,2.5,26.18-7.16,27.58-11.07,1.61.27-12.91.86-15.96,1.23-6.3-4.52-4.67-7.92-2.29-10.43,7.31-22.64,32.53-17.55,44.8,5.36,12.93,22.47-1.83,28.4-7.25,1.74-1.59,7.38-6.84,8.29-8.48,1.16-2.09,1.02-4.72,1.77-6.92,4.66-13.72,14.99-27.76,27.71-35.02,22.97-13.12,33.39,5.63,18.42,24.01-7.9,9.69-19.82,16.98-32.22,19.02.26,27.91,25.5,7.9,35.04-2.54,1.64-1.79,7.78-10.38,8.99-10.89,1.8-.75,3.1,3.01,3.16,4.37.22,5.02-9.32,15.76-13.08,19.25-14.6,13.58-44.9,27.27-50-2.18-9.72,11.45-23.73,25.07-40.21,22.82-10.41-1.43-13.78-9.51-13.82-19.09-6.03,8.66-18.7,26.61-30.92,24.08-5.21-1.08-7.07-7.04-7.29-11.66-7.39,7.18-18.74,19.58-30.43,14.59-1.42-.61-4.35-3.67-4.35-4.97,0-3.3-.12-6.64,0-9.94ZM451.24,172.28c8.26-1.69,14.75-7.63,19.85-13.99,2.66-3.3,10.02-12.86,5.59-16.73-3.46-3.02-8.82,3.58-11.14,6.2-6.07,6.84-11.31,15.88-14.3,24.51ZM221.9,172.42c-8.97,1.33-19.67,21.03-22.68,28.89-5.75,15-6.86,29.97,9.81,11.05,5.96-6.77,11.7-16.24,15.19-24.56.82-1.95,4-10.02,3.98-11.49-.03-3.16-3.59-4.29-6.3-3.89ZM135.21,177.67c10.19-23.38-.69-45.81-26.07-49.93-28.49-4.62-64.24,9.23-80.39,33.53-7.17,10.78-11.99,27.01-.49,36.79,2.77,2.36,12.57,6.9,14.61,2.79,1.95-3.93-3.11-4.41-4.94-6.87-8.37-11.33,4.76-30.47,13.31-38.17,14.25-12.83,54.93-31.61,67.1-8.7s-19.58,60.92-45.06,57.46c-.85-.12-1.08.35-.91-.92,5.76-12.49,10.56-25.4,16.03-38.01,1.53-3.52,6.72-12.52,6.98-15.4.43-4.73-4.13-4.09-7.65-3.27-9.86,2.28-16.51,19.43-20.45,27.99-8.87,19.27-15.86,39.41-24.44,58.78-3.27,7.37-8.02,19.13-15.62,22.89-4.6,2.28-5.76.83-10.35.07-3.43,5.81,3.93,11.18,9.29,11.77,18.48,2.03,27.53-21.17,33.45-34.73,3.02-6.91,5.59-14.05,8.5-21,27.07,5.15,56.08-9.81,67.1-35.07ZM372.04,141.24c13.45,1.48,16.11-21.5,1.39-18.51-8.65,1.76-11.19,17.43-1.39,18.51Z"/><path d="M440.39,340.57c-14.98-15.05-64.3-9.02-84.42-6.73-19.07,2.18-38.16,5.24-56.9,9.24,0,0-13.47,4.13-23.93,10.84-5.18,3.32-12.65-4.22-13.75-4.6-28.07,4.72-55.42,13-83.32,18.42-22.11,4.29-47.31,9.23-68.67.15-3.25,4.97,2.03,10.98,5.82,14.03,11.48,9.23,31.58,10.4,65.11,1.74,21.09-5.44,56.49-15.42,82.5-21.91,3.11,1.17,4.02,1.49,5.22,2.03.17.08,5.57,2.81,12.05.21,4.5-1.8,7.19-5.11,8.11-5.85s1.97-1.57,3.1-1.99c6.9-2.62,22.64-4.64,30.62-6.03,25.3-4.41,93.49-14.9,114.83-3.43,1.47.79,6.19,6.06,7.02,1.67.56-2.95-1.42-5.8-3.4-7.78Z"/></svg>