<?xml version="1.0" encoding="UTF-8"?>
<svg id="Layer_1" xmlns="http://www.w3.org/2000/svg" version="1.1" viewBox="0 0 512 512">
  <!-- Generator: Adobe Illustrator 29.1.0, SVG Export Plug-In . SVG Version: 2.1.0 Build 142)  -->
  <defs>
    <style>
      .st0 {
        fill: #fff;
      }
    </style>
  </defs>
  <path class="st0" d="M332.1,212.7c66-4.5,110.9,38.5,72.6,102.1-24.4,40.6-72.5,61.3-119.1,53-13,29-26.8,58-33.9,89.2-11.7,12.6-29.8-1-28.8-16.5.8-13.3,13.6-40.1,19.1-53.5,11.8-28.9,25-60.1,38.5-88.2,5.8-12.1,17.4-37,27.9-44.7,6.1-4.5,22.8-10.2,26.4-.7l-41.6,95c-.5,1.3.8,2.3,1.9,2.6,8.3,2.5,31.2-4.2,39.4-8.2,49.6-24.2,80.4-117-2.5-110.8-43.4,3.3-121.1,44.6-113.8,96.3,1.7,12,12.9,6.7,12.3,16.1-.6,9.9-18.7,8.9-25.6,5.8-27.1-12.3-18.2-48.5-5.1-68.2,27.7-41.8,83.5-66.1,132.4-69.4h0Z"/>
  <path class="st0" d="M329.3,162.6c20.2-46.3-1.4-90.7-51.6-98.9-56.4-9.2-127.2,18.3-159.2,66.4-14.2,21.4-23.7,53.5-1,72.9,5.5,4.7,24.9,13.7,28.9,5.5,3.9-7.8-6.2-8.7-9.8-13.6-16.6-22.4,9.4-60.4,26.4-75.6,28.2-25.4,108.8-62.6,132.9-17.2,25,47-38.8,120.7-89.2,113.8-1.7-.2-2.1.7-1.8-1.8,11.4-24.7,20.9-50.3,31.7-75.3,3-7,13.3-24.8,13.8-30.5.8-9.4-8.2-8.1-15.1-6.5-19.5,4.5-32.7,38.5-40.5,55.4-17.6,38.2-31.4,78.1-48.4,116.4-6.5,14.6-15.9,37.9-30.9,45.3-9.1,4.5-11.4,1.6-20.5.1-6.8,11.5,7.8,22.1,18.4,23.3,36.6,4,54.5-41.9,66.2-68.8,6-13.7,11.1-27.8,16.8-41.6,53.6,10.2,111.1-19.4,132.9-69.5h0Z"/>
</svg>