<?xml version="1.0" encoding="UTF-8"?><svg id="Layer_1" xmlns="http://www.w3.org/2000/svg" viewBox="0 0 512 512"><path d="M332.13,212.69c66.03-4.46,110.85,38.46,72.59,102.11-24.4,40.59-72.54,61.26-119.09,53.05-13.03,28.98-26.83,57.98-33.91,89.18-11.7,12.64-29.77-1-28.84-16.48.79-13.27,13.64-40.13,19.13-53.51,11.84-28.88,25.04-60.13,38.49-88.21,5.8-12.1,17.44-37,27.9-44.68,6.15-4.51,22.77-10.19,26.38-.68l-41.59,95c-.5,1.28.77,2.32,1.86,2.65,8.27,2.5,31.25-4.24,39.39-8.2,49.65-24.2,80.36-117.04-2.52-110.77-43.37,3.29-121.06,44.61-113.83,96.29,1.67,11.95,12.87,6.67,12.31,16.1-.58,9.86-18.67,8.87-25.55,5.75-27.15-12.31-18.19-48.48-5.09-68.25,27.7-41.78,83.46-66.06,132.36-69.37Z"/><path d="M329.29,162.64c20.19-46.3-1.36-90.73-51.63-98.89-56.43-9.15-127.24,18.29-159.22,66.4-14.2,21.36-23.74,53.49-.96,72.87,5.49,4.67,24.89,13.67,28.93,5.53,3.86-7.77-6.17-8.73-9.78-13.62-16.58-22.44,9.43-60.35,26.35-75.59,28.22-25.4,108.78-62.6,132.89-17.23,24.99,47.02-38.78,120.66-89.24,113.81-1.69-.23-2.13.69-1.8-1.81,11.4-24.74,20.91-50.3,31.74-75.28,3.02-6.97,13.32-24.8,13.83-30.5.84-9.37-8.18-8.09-15.15-6.49-19.53,4.51-32.7,38.48-40.5,55.44-17.56,38.17-31.41,78.05-48.41,116.42-6.47,14.59-15.89,37.88-30.94,45.33-9.11,4.51-11.41,1.63-20.5.15-6.79,11.5,7.78,22.14,18.39,23.31,36.6,4.02,54.52-41.93,66.25-68.78,5.98-13.69,11.06-27.83,16.83-41.6,53.62,10.19,111.08-19.43,132.89-69.46Z"/></svg>