<?xml version="1.0" encoding="UTF-8"?>
<svg id="Layer_1" xmlns="http://www.w3.org/2000/svg" version="1.1" viewBox="0 0 512 512">
  <!-- Generator: Adobe Illustrator 29.1.0, SVG Export Plug-In . SVG Version: 2.1.0 Build 142)  -->
  <defs>
    <style>
      .st0 {
        fill: #fff;
      }
    </style>
  </defs>
  <path class="st0" d="M261.4,349.3c4.9-16,20.8-24.5,34-32.1l5.9-17.6c-6.8,8.8-17.8,22.5-30.3,20.3-6-1-8.5-6-8.8-11.6-5.7,5.1-13.4,15.3-21.3,16.6-9.9,1.7-12.7-3.9-13.2-12.6,0-.7.4-1.7-.6-1.5-7.6,15.3-33.5,31-35.7,3.1-7.6,7.5-18.3,23.5-30.7,19.5-7.7-2.4-8.6-11.9-7-18.8,2.2-9.4,10.2-26.5,14.2-36.1,3.5-8.5,7.4-18.3,11.6-26.3,2.4-4.5,5.9-12.4,12-11.6,8.7,1.2.2,18.8-1.7,23.7-5.6,14.9-15.4,32.3-19.3,47.2-1.6,6.3-2.9,15,5.8,8.2,5.4-4.2,15.5-15.2,18.5-21.2,4.3-8.6,6.1-14.9,12.8-22.6s24.4-22,35.1-13.9c1,.8,2.2,3.1,2.5,2.8,1.1-1.1,2-3.7,4-5,5.3-3.4,12.3-1.2,10.3,5.9-1.2,4.2-5.3,10.7-7.2,15.2-2.1,5.1-10.4,25.7-9.5,30,.1.7.6,1.5,1.1,2,1.8,1.1,4.4-1.1,5.9-2.2,19.5-15,18.3-31,29.4-48.9,4.4-7.1,12.6-13,15-1.1-3.6,11.9-9.6,23.1-13.5,35-.9,2.7-3.7,9-1.7,11.3,1.2,1.2,3.1.7,4.5.1,6-2.3,22.6-23.9,25.8-30.1,2.7-5.4,7.4-24.5,12.9-26.2,4.7-1.5,8.9,1.2,8.8,6.2,0,2.1-2.2,7.7-3,10.1-3,9.7-7.2,19.2-10.2,28.9-.2.6-1,1.9-.2,2.3,4-3.6,8.6-7.4,12.1-11.5,4.8-5.6,4.6-8.7,7.5-14.9,4.9-10.4,16.1-22.7,26.8-27.2,21.9-9.1,28.8,8.3,15.6,24.3-7.5,9.1-19.9,18-32,18.6-1.6,11.6,4,17,15,12.2,13.6-5.8,32.5-31.4,37.4-45.2,2.4-6.6,0-9.3,1.2-14.9,1.1-5.4,8-12.7,14-10.2,5.3,2.2-2.1,10.4-.3,13.3,1.5,2.4,13.5,3,16.9,6.4,3.1,3.2,1,8.8-.5,12.4-3,7.4-8.4,14.6-11.4,22.2-4.8,11.9-1.7,14.3,7.8,5.9,6.9-6.1,12.1-14.6,18.6-21.1l2.4-.3c2.2,5-.6,8.1-3.2,11.9-5.3,8-20.6,25-30.2,26.4-3.1.4-7.2-.5-9.5-2.6-12.1-11,8-34.5,12.5-45.4.2-3.9-6.8-4.7-9.6-5.1-2.8,5.6-4.6,11.6-7.7,17.1-6.9,12.5-23.4,31.3-36.1,37.8-15.5,7.9-32.7,6.7-33.9-14l-19.5,18.4s-10.1,25.1-12.5,30c-3.7,7.7-8.5,12.9-10.7,14.9-2.1,1.9-5.3,5.4-10.3,6.6-6.6,1.6-11.7-1.6-12.9-2.4-2.7-2-5.4-7.7-3.8-12.9h0ZM349.4,281.6c5.4-1.1,10.2-4.1,14.3-7.8,3.9-3.5,16.8-18,11.1-23-3.5-3.1-10.2,4.9-12.4,7.4-5.8,6.8-9.9,15-13.1,23.3ZM233.1,268.7c-10.5,2.2-24.3,30.6-25.2,40.6-1.3,14.7,7.4,6.8,12.7.9,4.9-5.5,10.1-13.7,13.3-20.3,1.2-2.5,6.9-16.1,6.8-17.8-.4-3.5-4.7-4-7.5-3.4ZM291,327.5c-5.6,3.2-20.8,14-20.4,20.8,0,1.5,2.4,4,4,4,5.5,0,15.2-19.5,16.5-24.8h0Z"/>
  <path class="st0" d="M115.7,241.4c33.3-2.2,56,19.4,36.6,51.6-12.3,20.5-36.6,30.9-60.1,26.8-6.6,14.6-13.5,29.3-17.1,45-5.9,6.4-15-.5-14.6-8.3.4-6.7,6.9-20.3,9.7-27,6-14.6,12.6-30.4,19.4-44.5,2.9-6.1,8.8-18.7,14.1-22.6,3.1-2.3,11.5-5.1,13.3-.3l-21,48c-.2.6.4,1.2.9,1.3,4.2,1.3,15.8-2.1,19.9-4.1,25.1-12.2,40.6-59.1-1.3-55.9-21.9,1.7-61.1,22.5-57.5,48.6.8,6,6.5,3.4,6.2,8.1-.3,5-9.4,4.5-12.9,2.9-13.7-6.2-9.2-24.5-2.6-34.5,14-21.1,42.1-33.4,66.8-35h0Z"/>
  <path class="st0" d="M305.9,203.6c0-.1,1.7-1.9,0-1.2-5.7,7.7-12.6,14.9-21.5,18.9-14.4,6.3-30.8,4.5-31.6-14.2-6.5,8.2-16.6,23.5-28.7,21.9-3.8-.5-6.6-2.8-8-6.4l-1.6-6.8c-8.1,15-34.3,29.1-35.7,1.9-5.4,7.3-20.3,25.1-30.4,16.8-7.1-5.9-1.5-18.4,1.4-25.3,1.4-3.2,10.1-18.2,10-19.8-.1-2.6-6.2-3.9-8.4-4.4l-21.4,43c-3.1,5.6-8.9,4.7-7-2.7,1.2-4.9,7.7-16.8,10.2-22.1,2.1-4.4,10.9-19,11.4-22.1.1-.7-1.2-3.6-1.2-5.3-.1-7.3,8.1-19.1,15.9-13.7,2.5,3.5-5,9.2-2.6,12.5,3.2,4.5,22.5-2,17.9,12.2-2.3,7-8.1,15.3-11.1,22.4-1.6,3.9-6.2,12.9-2.7,15.8,3.7.3,18.9-16.8,20.9-20.5,1.2-2.3,1.8-5.4,2.9-7.7,7-14.4,23.9-35.7,42-33.1,2.2.3,5.6,1.9,6,4.3h1.2c1.8-6,13.9-9,14.3-.9.1,2.9-8.3,17.9-10,22.2-2,5-8.2,21.1-7.3,25.6,1.3,6.4,11.1-5.3,13-7.4,12-13.2,14.7-28.9,27.9-41,6.9-6.3,21.8-15.9,31-9.9,11.1,7.3-.9,28.7-9.5,26.3-6.5-1.8,6.1-16.7,2.1-19.5-5.2-3.7-16.2,12.1-18.4,15.9-3.9,6.8-12.9,29.6-2.6,33.7,9.5,3.8,24.3-10.9,30-17.5,9.1-10.7,11.2-23.6,17.7-35.7-2.6-1.1-11.3,2.5-11.7-2-.6-7,11.4-7,15.9-8.4,2.7-5.7,5.8-13.1,9.5-18.2,2.4-3.3,5-5.9,9-2.8,6.7,5.2-4,18.8-2.8,19.9,3.7-.3,12.3-2.9,11.2,3.4-1,5.7-13.6,4.2-15.8,7.2l-16.2,42.2c-.8,14.9,14.3-1.3,18-5.6,8.2-9.3,9.6-18.1,14.5-29,2-4.5,7.1-17.4,12.4-18.1s7.5,4.3,6.9,8.8c-.7,4.7-9.1,19.9-11.4,25.9-1.3,3.3-6.9,17-6.6,19.6.4,3.1,3.9,1.7,5.6.6,5-3.4,17-19.4,19.8-25,6.1-12.5,8-20.1,19.4-29.6,6.3-5.3,20.7-12.9,28.5-8,10.3,6.3,2.5,26.2-7.2,27.6-11.1,1.6.3-12.9.9-16,1.2-6.3-4.5-4.7-7.9-2.3-10.4,7.3-22.6,32.5-17.5,44.8,5.4,12.9,22.5-1.8,28.4-7.2,1.7-1.6,7.4-6.8,8.3-8.5,1.2-2.1,1-4.7,1.8-6.9,4.7-13.7,15-27.8,27.7-35,23-13.1,33.4,5.6,18.4,24-7.9,9.7-19.8,17-32.2,19,.3,27.9,25.5,7.9,35-2.5,1.6-1.8,7.8-10.4,9-10.9,1.8-.8,3.1,3,3.2,4.4.2,5-9.3,15.8-13.1,19.2-14.6,13.6-44.9,27.3-50-2.2-9.7,11.4-23.7,25.1-40.2,22.8-10.4-1.4-13.8-9.5-13.8-19.1-6,8.7-18.7,26.6-30.9,24.1-5.2-1.1-7.1-7-7.3-11.7-7.4,7.2-18.7,19.6-30.4,14.6-1.4-.6-4.4-3.7-4.4-5,0-3.3-.1-6.6,0-9.9h0ZM451.2,172.3c8.3-1.7,14.8-7.6,19.9-14,2.7-3.3,10-12.9,5.6-16.7-3.5-3-8.8,3.6-11.1,6.2-6.1,6.8-11.3,15.9-14.3,24.5h0ZM221.9,172.4c-9,1.3-19.7,21-22.7,28.9-5.8,15-6.9,30,9.8,11.1,6-6.8,11.7-16.2,15.2-24.6.8-1.9,4-10,4-11.5,0-3.2-3.6-4.3-6.3-3.9ZM135.2,177.7c10.2-23.4-.7-45.8-26.1-49.9-28.5-4.6-64.2,9.2-80.4,33.5-7.2,10.8-12,27-.5,36.8,2.8,2.4,12.6,6.9,14.6,2.8,2-3.9-3.1-4.4-4.9-6.9-8.4-11.3,4.8-30.5,13.3-38.2,14.2-12.8,54.9-31.6,67.1-8.7s-19.6,60.9-45.1,57.5c-.8-.1-1.1.4-.9-.9,5.8-12.5,10.6-25.4,16-38,1.5-3.5,6.7-12.5,7-15.4.4-4.7-4.1-4.1-7.7-3.3-9.9,2.3-16.5,19.4-20.4,28-8.9,19.3-15.9,39.4-24.4,58.8-3.3,7.4-8,19.1-15.6,22.9-4.6,2.3-5.8.8-10.4,0-3.4,5.8,3.9,11.2,9.3,11.8,18.5,2,27.5-21.2,33.5-34.7,3-6.9,5.6-14.1,8.5-21,27.1,5.1,56.1-9.8,67.1-35.1h0ZM372,141.2c13.5,1.5,16.1-21.5,1.4-18.5-8.6,1.8-11.2,17.4-1.4,18.5Z"/>
  <path class="st0" d="M440.4,340.6c-15-15-64.3-9-84.4-6.7-19.1,2.2-38.2,5.2-56.9,9.2,0,0-13.5,4.1-23.9,10.8-5.2,3.3-12.6-4.2-13.8-4.6-28.1,4.7-55.4,13-83.3,18.4-22.1,4.3-47.3,9.2-68.7.1-3.2,5,2,11,5.8,14,11.5,9.2,31.6,10.4,65.1,1.7,21.1-5.4,56.5-15.4,82.5-21.9,3.1,1.2,4,1.5,5.2,2,.2,0,5.6,2.8,12,.2,4.5-1.8,7.2-5.1,8.1-5.9s2-1.6,3.1-2c6.9-2.6,22.6-4.6,30.6-6,25.3-4.4,93.5-14.9,114.8-3.4,1.5.8,6.2,6.1,7,1.7.6-3-1.4-5.8-3.4-7.8h0Z"/>
</svg>